<svg width="1280" height="800" viewBox="0 0 1280 800" xmlns="http://www.w3.org/2000/svg" font-family="DejaVu Sans, Segoe UI, Roboto, Helvetica, Arial, sans-serif">
  <defs>
    <linearGradient id="logo" x1="0" y1="0" x2="1" y2="1">
      <stop offset="0" stop-color="#58a6ff"/><stop offset="1" stop-color="#a371f7"/>
    </linearGradient>
    <clipPath id="round"><rect width="1280" height="800" rx="16"/></clipPath>
  </defs>

  <g clip-path="url(#round)">
    <rect width="1280" height="800" fill="#0d1117"/>

    <!-- window chrome -->
    <rect width="1280" height="46" fill="#161b22"/>
    <circle cx="24" cy="23" r="6.5" fill="#ff5f56"/>
    <circle cx="46" cy="23" r="6.5" fill="#ffbd2e"/>
    <circle cx="68" cy="23" r="6.5" fill="#27c93f"/>
    <rect x="430" y="11" width="420" height="24" rx="12" fill="#0d1117" stroke="#2a313c"/>
    <text x="640" y="28" text-anchor="middle" font-size="12.5" fill="#8b949e">localhost:5173 — Master-Anything</text>

    <!-- ================= SIDEBAR ================= -->
    <rect x="0" y="46" width="312" height="754" fill="#161b22"/>
    <line x1="312" y1="46" x2="312" y2="800" stroke="#2a313c"/>

    <rect x="24" y="74" width="24" height="24" rx="7" fill="url(#logo)"/>
    <text x="33" y="91" text-anchor="middle" font-size="15" font-weight="800" fill="#0b0e13">M</text>
    <text x="58" y="91" font-size="16" font-weight="700" fill="#d6dde6">Master<tspan fill="#58a6ff">-Anything</tspan></text>
    <text x="24" y="116" font-size="12" fill="#8b949e">Master anything, verifiably.</text>

    <!-- repo input -->
    <rect x="24" y="132" width="210" height="34" rx="8" fill="#0d1117" stroke="#2a313c"/>
    <text x="36" y="154" font-size="13" fill="#c9d1d9" font-family="monospace">examples/mixed-app</text>
    <rect x="240" y="132" width="48" height="34" rx="8" fill="#58a6ff"/>
    <text x="264" y="154" text-anchor="middle" font-size="13" font-weight="700" fill="#0d1117">Map</text>

    <text x="24" y="190" font-size="12.5" fill="#8b949e">domain: <tspan fill="#58a6ff" font-weight="700">mixed</tspan></text>

    <!-- stats -->
    <g>
      <rect x="24" y="204" width="80" height="48" rx="8" fill="#0d1117" stroke="#2a313c"/>
      <text x="36" y="228" font-size="17" font-weight="700" fill="#d6dde6">2</text>
      <text x="36" y="243" font-size="10" fill="#8b949e">files</text>
      <rect x="112" y="204" width="80" height="48" rx="8" fill="#0d1117" stroke="#2a313c"/>
      <text x="124" y="228" font-size="17" font-weight="700" fill="#d6dde6">14</text>
      <text x="124" y="243" font-size="10" fill="#8b949e">nodes</text>
      <rect x="200" y="204" width="88" height="48" rx="8" fill="#0d1117" stroke="#2a313c"/>
      <text x="212" y="228" font-size="17" font-weight="700" fill="#d6dde6">6</text>
      <text x="212" y="243" font-size="10" fill="#8b949e">units</text>
    </g>

    <!-- tabs -->
    <g>
      <rect x="24" y="268" width="84" height="30" rx="7" fill="#0d1117" stroke="#2a313c"/>
      <text x="66" y="288" text-anchor="middle" font-size="12.5" fill="#8b949e">Graph</text>
      <rect x="114" y="268" width="84" height="30" rx="7" fill="#58a6ff"/>
      <text x="156" y="288" text-anchor="middle" font-size="12.5" font-weight="700" fill="#0d1117">Learn</text>
      <rect x="204" y="268" width="84" height="30" rx="7" fill="#0d1117" stroke="#2a313c"/>
      <text x="246" y="288" text-anchor="middle" font-size="12.5" fill="#8b949e">Tutor</text>
    </g>

    <text x="24" y="328" font-size="11.5" fill="#8b949e">Learning path — prerequisites first</text>

    <!-- path rows -->
    <g font-size="13.5">
      <!-- row template: index, title, level pill -->
      <g transform="translate(24,340)">
        <rect width="264" height="44" rx="9" fill="#0d1117" stroke="#2a313c"/>
        <text x="16" y="27" font-size="11" fill="#8b949e">1</text>
        <text x="34" y="22" fill="#d6dde6" font-weight="600">Calculator</text>
        <text x="34" y="37" font-size="10.5" fill="#8b949e">class · calc.py</text>
        <rect x="196" y="13" width="56" height="20" rx="10" fill="#3fb950"/>
        <text x="224" y="27" text-anchor="middle" font-size="10.5" font-weight="700" fill="#0d1117">Apply</text>
      </g>
      <g transform="translate(24,392)">
        <rect width="264" height="44" rx="9" fill="#0d1117" stroke="#2a313c"/>
        <text x="16" y="27" font-size="11" fill="#8b949e">2</text>
        <text x="34" y="22" fill="#d6dde6" font-weight="600">average</text>
        <text x="34" y="37" font-size="10.5" fill="#8b949e">def average(nums):</text>
        <rect x="188" y="13" width="64" height="20" rx="10" fill="#a371f7"/>
        <text x="220" y="27" text-anchor="middle" font-size="10.5" font-weight="700" fill="#0d1117">Analyze</text>
      </g>
      <g transform="translate(24,444)">
        <rect width="264" height="44" rx="9" fill="#0d1117" stroke="#2a313c"/>
        <text x="16" y="27" font-size="11" fill="#8b949e">3</text>
        <text x="34" y="22" fill="#d6dde6" font-weight="600">Using Calculator</text>
        <text x="34" y="37" font-size="10.5" fill="#8b949e">section · README.md</text>
        <rect x="180" y="13" width="72" height="20" rx="10" fill="#58a6ff"/>
        <text x="216" y="27" text-anchor="middle" font-size="10" font-weight="700" fill="#0d1117">Understand</text>
      </g>
      <g transform="translate(24,496)">
        <rect width="264" height="44" rx="9" fill="#0d1117" stroke="#2a313c"/>
        <text x="16" y="27" font-size="11" fill="#8b949e">4</text>
        <text x="34" y="22" fill="#d6dde6" font-weight="600">Averages</text>
        <text x="34" y="37" font-size="10.5" fill="#8b949e">section · README.md</text>
        <rect x="196" y="13" width="56" height="20" rx="10" fill="#30363d"/>
        <text x="224" y="27" text-anchor="middle" font-size="10.5" font-weight="700" fill="#8b949e">None</text>
      </g>
    </g>

    <!-- ================= MAIN: PRACTICE ================= -->
    <rect x="344" y="78" width="904" height="684" rx="12" fill="#161b22" stroke="#2a313c"/>
    <text x="372" y="116" font-size="18" font-weight="700" fill="#d6dde6">Practice · Calculator</text>
    <text x="1216" y="116" text-anchor="end" font-size="20" fill="#8b949e">×</text>

    <!-- Apply challenge -->
    <text x="372" y="150" font-size="14" font-weight="700" fill="#3fb950">Apply challenge · real tests</text>
    <text x="372" y="176" font-size="14.5" fill="#d6dde6">Reimplement `add` so the project's tests pass.</text>
    <text x="372" y="198" font-size="12.5" fill="#8b949e">calc.py:5-6 · <tspan fill="#3fb950">✓ test-verified</tspan></text>

    <!-- code editor -->
    <rect x="372" y="212" width="848" height="96" rx="8" fill="#0d1117" stroke="#2a313c"/>
    <g font-family="monospace" font-size="14.5">
      <text x="388" y="240" fill="#ff7b72">def <tspan fill="#d2a8ff">add</tspan><tspan fill="#c9d1d9">(self, a, b):</tspan></text>
      <text x="388" y="266" fill="#ff7b72" xml:space="preserve">    return <tspan fill="#c9d1d9">a + b</tspan></text>
    </g>

    <!-- run button + target -->
    <rect x="372" y="324" width="120" height="36" rx="9" fill="#58a6ff"/>
    <text x="432" y="347" text-anchor="middle" font-size="13.5" font-weight="700" fill="#0d1117">Run tests</text>
    <text x="508" y="347" font-size="12.5" fill="#8b949e">Target: <tspan fill="#d6dde6" font-weight="700">Apply</tspan></text>

    <!-- result -->
    <rect x="372" y="376" width="848" height="78" rx="9" fill="#16241a" stroke="#3fb950" stroke-opacity="0.5"/>
    <text x="392" y="406" font-size="14.5" font-weight="700" fill="#3fb950">✓ Mastered (Apply) — tests pass</text>
    <text x="392" y="430" font-size="12.5" fill="#8b949e" font-family="monospace"># pass 4, # fail 0 · 12ms · level 3</text>

    <!-- other challenges (collapsed) -->
    <line x1="372" y1="486" x2="1220" y2="486" stroke="#2a313c" stroke-dasharray="4 4"/>
    <text x="372" y="516" font-size="14" font-weight="700" fill="#58a6ff">Understand challenge · LLM-graded vs source</text>
    <rect x="372" y="528" width="170" height="32" rx="8" fill="#0d1117" stroke="#2a313c"/>
    <text x="457" y="549" text-anchor="middle" font-size="12.5" fill="#c9d1d9">Ask me a question</text>

    <text x="372" y="600" font-size="14" font-weight="700" fill="#a371f7">Analyze challenge · graph-verified</text>
    <text x="372" y="626" font-size="13" fill="#8b949e">If you change `Calculator`, which units are directly affected?</text>
    <g font-size="12.5">
      <rect x="372" y="640" width="180" height="30" rx="7" fill="#16241a" stroke="#3fb950" stroke-opacity="0.5"/>
      <text x="388" y="660" fill="#7ee2a8">☑ average</text>
      <rect x="564" y="640" width="230" height="30" rx="7" fill="#16241a" stroke="#3fb950" stroke-opacity="0.5"/>
      <text x="580" y="660" fill="#7ee2a8">☑ Using the Calculator</text>
      <rect x="806" y="640" width="150" height="30" rx="7" fill="#0d1117" stroke="#2a313c"/>
      <text x="822" y="660" fill="#8b949e">☐ Coordinate</text>
    </g>
    <text x="372" y="700" font-size="13" font-weight="700" fill="#3fb950">✓ Mastered (Analyze) — matches the graph · level 4</text>
  </g>
  <rect x="0.5" y="0.5" width="1279" height="799" rx="16" fill="none" stroke="#2a313c"/>
</svg>
