<svg width="1200" height="630" viewBox="0 0 1200 630" xmlns="http://www.w3.org/2000/svg" font-family="Segoe UI, Roboto, Helvetica, Arial, sans-serif">
  <defs>
    <linearGradient id="bg" x1="0" y1="0" x2="1" y2="1">
      <stop offset="0" stop-color="#0e1116"/>
      <stop offset="1" stop-color="#0a0d12"/>
    </linearGradient>
    <radialGradient id="glow1" cx="22%" cy="18%" r="55%">
      <stop offset="0" stop-color="#58a6ff" stop-opacity="0.20"/>
      <stop offset="1" stop-color="#58a6ff" stop-opacity="0"/>
    </radialGradient>
    <radialGradient id="glow2" cx="90%" cy="12%" r="55%">
      <stop offset="0" stop-color="#a371f7" stop-opacity="0.18"/>
      <stop offset="1" stop-color="#a371f7" stop-opacity="0"/>
    </radialGradient>
    <linearGradient id="grad" x1="0" y1="0" x2="1" y2="0">
      <stop offset="0" stop-color="#58a6ff"/>
      <stop offset="0.55" stop-color="#a371f7"/>
      <stop offset="1" stop-color="#3fb950"/>
    </linearGradient>
    <linearGradient id="logo" x1="0" y1="0" x2="1" y2="1">
      <stop offset="0" stop-color="#58a6ff"/>
      <stop offset="1" stop-color="#a371f7"/>
    </linearGradient>
  </defs>

  <rect width="1200" height="630" fill="url(#bg)"/>
  <rect width="1200" height="630" fill="url(#glow1)"/>
  <rect width="1200" height="630" fill="url(#glow2)"/>

  <!-- decorative knowledge graph on the right -->
  <g stroke="#58a6ff" stroke-opacity="0.25" stroke-width="1.5">
    <line x1="980" y1="150" x2="1080" y2="230"/>
    <line x1="1080" y1="230" x2="1010" y2="340"/>
    <line x1="1010" y1="340" x2="900" y2="300"/>
    <line x1="900" y1="300" x2="980" y2="150"/>
    <line x1="1080" y1="230" x2="1140" y2="150"/>
    <line x1="1010" y1="340" x2="1100" y2="430"/>
    <line x1="900" y1="300" x2="850" y2="420"/>
    <line x1="850" y1="420" x2="1100" y2="430"/>
  </g>
  <g>
    <circle cx="980" cy="150" r="10" fill="#58a6ff"/>
    <circle cx="1080" cy="230" r="13" fill="#a371f7"/>
    <circle cx="1010" cy="340" r="9" fill="#3fb950"/>
    <circle cx="900" cy="300" r="8" fill="#58a6ff"/>
    <circle cx="1140" cy="150" r="7" fill="#3a414d"/>
    <circle cx="1100" cy="430" r="9" fill="#a371f7"/>
    <circle cx="850" cy="420" r="7" fill="#3a414d"/>
  </g>

  <!-- logo + wordmark -->
  <g transform="translate(90,86)">
    <rect width="64" height="64" rx="16" fill="url(#logo)"/>
    <text x="32" y="46" text-anchor="middle" font-size="40" font-weight="800" fill="#0b0e13">M</text>
    <text x="86" y="44" font-size="30" font-weight="700" fill="#d6dde6">Master<tspan fill="#8b949e">·Anything</tspan></text>
  </g>

  <!-- headline -->
  <text x="90" y="300" font-size="86" font-weight="800" fill="#d6dde6" letter-spacing="-2">Master anything,</text>
  <text x="90" y="392" font-size="86" font-weight="800" fill="url(#grad)" letter-spacing="-2">verifiably.</text>

  <!-- subhead -->
  <text x="92" y="452" font-size="27" fill="#8b949e">From understanding → mastery. Prove it with real tests &amp; graph truth.</text>

  <!-- bloom pills -->
  <g transform="translate(92,500)" font-size="22" font-weight="700">
    <rect width="190" height="48" rx="24" fill="#0d1117" stroke="#58a6ff" stroke-opacity="0.5"/>
    <text x="95" y="31" text-anchor="middle" fill="#58a6ff">Understand</text>
    <g transform="translate(210,0)">
      <rect width="130" height="48" rx="24" fill="#0d1117" stroke="#3fb950" stroke-opacity="0.6"/>
      <text x="65" y="31" text-anchor="middle" fill="#3fb950">Apply</text>
    </g>
    <g transform="translate(360,0)">
      <rect width="150" height="48" rx="24" fill="#0d1117" stroke="#a371f7" stroke-opacity="0.6"/>
      <text x="75" y="31" text-anchor="middle" fill="#a371f7">Analyze</text>
    </g>
  </g>
</svg>
